<!DOCTYPE svg PUBLIC "-//W3C//DTD SVG 1.1//EN" "http://www.w3.org/Graphics/SVG/1.1/DTD/svg11.dtd">
<!-- Uploaded to: SVG Repo, www.svgrepo.com, Transformed by: SVG Repo Mixer Tools -->
<svg version="1.1" id="Layer_1" xmlns="http://www.w3.org/2000/svg" xmlns:xlink="http://www.w3.org/1999/xlink" viewBox="0 0 512 512" xml:space="preserve" width="800px" height="800px" fill="#000000" transform="matrix(-1, 0, 0, 1, 0, 0)">
<g id="SVGRepo_bgCarrier" stroke-width="0"/>
<g id="SVGRepo_tracerCarrier" stroke-linecap="round" stroke-linejoin="round"/>
<g id="SVGRepo_iconCarrier"> <path style="fill:#CCCCCC;" d="M503.415,374.606v13.137c0,14.361-11.638,25.999-25.999,25.999h-76.005H136.594 c-14.361,0-25.999-11.638-25.999-25.999v-13.137h290.816H503.415z"/> <path style="fill:#B3B3B3;" d="M136.594,413.742h-99.04c-15.997,0-28.974-12.977-28.974-28.974v-10.161h102.016v13.137 C110.596,402.104,122.233,413.742,136.594,413.742z"/> <path style="fill:#E6E6E6;" d="M401.411,112.456v262.151H110.596H8.58V112.456c0-7.839,6.362-14.201,14.201-14.201H387.21 C395.049,98.255,401.411,104.617,401.411,112.456z M372.277,345.472V127.389H37.714v218.083H372.277z"/> <path style="fill:#2BA5F7;" d="M123.561,196.494c5.355,5.367,5.355,14.052,0,19.419c-5.367,5.367-14.064,5.367-19.419,0 c-5.367-5.367-5.367-14.052,0-19.419C109.497,191.127,118.194,191.127,123.561,196.494z"/> <g> <path style="fill:#E6E6E6;" d="M123.561,215.913c5.355-5.367,5.355-14.052,0-19.419c-5.367-5.367-14.064-5.367-19.419,0 c-5.367,5.367-5.367,14.052,0,19.419C109.497,221.28,118.194,221.28,123.561,215.913z M159.16,167.84v82.528H76.896V167.84 L159.16,167.84L159.16,167.84z"/> <rect x="159.163" y="167.836" style="fill:#E6E6E6;" width="173.936" height="82.528"/> </g> <path style="fill:#2BA5F7;" d="M372.277,127.389v218.083H37.714V127.389C37.714,127.389,372.277,127.389,372.277,127.389z M333.096,250.368V167.84H159.16H76.896v82.528h82.265H333.096z"/> <g> <path style="fill:#333333;" d="M380.858,345.478V127.385c0-4.74-3.841-8.582-8.582-8.582H37.712c-4.741,0-8.582,3.843-8.582,8.582 v218.091c0,4.74,3.841,8.582,8.582,8.582h334.564C377.017,354.06,380.858,350.218,380.858,345.478z M363.694,336.896H46.294 V135.968h317.399V336.896z"/> <path style="fill:#333333;" d="M503.418,366.024h-93.429V112.452c0-12.559-10.218-22.776-22.776-22.776H22.776 C10.218,89.675,0,99.892,0,112.452V384.77c0,20.707,16.848,37.554,37.554,37.554h439.864c19.069,0,34.582-15.513,34.582-34.581 v-13.136C512,369.867,508.157,366.024,503.418,366.024z M17.165,112.452c0-3.094,2.517-5.612,5.612-5.612h364.435 c3.094,0,5.612,2.517,5.612,5.612v253.572h-282.23H17.165V112.452z M17.165,384.77v-1.581h84.846v4.553 c0,6.349,1.727,12.298,4.725,17.416H37.554C26.311,405.158,17.165,396.012,17.165,384.77z M494.835,387.742 c0,9.604-7.813,17.416-17.418,17.416H136.592c-9.604,0-17.416-7.813-17.416-17.416v-4.553h375.66V387.742z"/> <path style="fill:#333333;" d="M76.894,258.952h256.198c4.741,0,8.582-3.843,8.582-8.582v-82.528c0-4.74-3.841-8.582-8.582-8.582 H76.894c-4.741,0-8.582,3.843-8.582,8.582v82.528C68.312,255.109,72.155,258.952,76.894,258.952z M324.51,241.787H167.739v-65.363 H324.51V241.787z M85.477,176.424h65.098v65.363H85.477V176.424z"/> <path style="fill:#333333;" d="M140.145,220.363l-5.656-5.656c1.096-2.662,1.673-5.538,1.673-8.503 c0-5.961-2.321-11.564-6.535-15.779c-4.216-4.215-9.818-6.535-15.779-6.535c-5.961,0-11.563,2.321-15.778,6.535 c-4.216,4.214-6.536,9.818-6.536,15.779c0,5.96,2.321,11.563,6.536,15.779c4.35,4.35,10.064,6.525,15.778,6.525 c2.889,0,5.779-0.561,8.492-1.674l5.668,5.668c1.676,1.675,3.874,2.514,6.069,2.514s4.393-0.838,6.069-2.514 C143.496,229.149,143.496,223.715,140.145,220.363z M110.207,209.845c-0.974-0.973-1.508-2.266-1.508-3.641 c0-1.375,0.536-2.669,1.508-3.641s2.265-1.508,3.641-1.508c1.377,0,2.669,0.536,3.641,1.508c0.001,0,0.001,0,0.001,0 c0.973,0.973,1.507,2.265,1.507,3.641c0,1.375-0.536,2.669-1.507,3.641C115.479,211.852,112.214,211.852,110.207,209.845z"/> <path style="fill:#333333;" d="M76.894,289.711h215.003c4.741,0,8.582-3.843,8.582-8.582s-3.841-8.582-8.582-8.582H76.894 c-4.741,0-8.582,3.843-8.582,8.582S72.155,289.711,76.894,289.711z"/> <path style="fill:#333333;" d="M76.894,321.07h137.189c4.741,0,8.582-3.843,8.582-8.582s-3.841-8.582-8.582-8.582H76.894 c-4.741,0-8.582,3.843-8.582,8.582S72.155,321.07,76.894,321.07z"/> </g> </g>
</svg>